<?xml version="1.0" encoding="UTF-8"?>
<svg version="1.1" viewBox="400 250 350 400" xmlns="http://www.w3.org/2000/svg">
<path transform="translate(452,282)" d="m0 0h6l4 4 2 7 15 93 18 113 15 93 4 23 6-34 12-62 15-72 8-32 8-24 9-17 9-11 8-8 14-9 15-6 16-3h26l16 3 16 6 14 9 10 9 9 12 7 14 4 12 2 10 1 22-2 18-5 16-6 12-7 9-5 6-12 9-12 6-13 4-6 1h-24l-15-4-13-7-10-9-7-8-8-14-5-13-5-21-2-21 6-17 7-13 2-1 2 33 4 25 6 18 6 12 9 10 8 6 12 5 12 2 15-1 12-3 12-6 11-10 7-11 5-11 3-14v-26l-4-16-8-16-7-9-8-7-14-8-19-5-16-1-17 2-13 4-11 6-10 9-7 9-8 16-4 10-8 29-9 41-15 75-17 89-4 18-5 5h-7l-5-4-3-12-12-73-23-144-13-83-2-13-9 50-16 86-9 49-4 21-2 4-4 2-7-1-3-3-17-44-12-32-2 3-9 22-7 9-8 6-10 3h-128l-5-4v-7l4-5 124-1 10-3 6-8 16-38 5-5 5-1 5 3 3 4 24 64 2-8 19-104 19-100 3-14z" fill="#FA701E"/>
<path transform="translate(576,458)" d="m0 0 2 2 8 20 6 10v127l-2 1h-12l-2-2z" fill="#FA701E"/>
</svg>
