<?xml version="1.0" encoding="UTF-8"?>
<svg id="Layer_1" data-name="Layer 1" xmlns="http://www.w3.org/2000/svg" viewBox="0 0 1024 1024">
  <defs>
    <style>
      .cls-1 {
        fill: #fa701e;
      }
    </style>
  </defs>
  <path class="cls-1" d="M474.02,135.42c21.14-5.44,23.9,36.08,26.87,51.15,9.85,64.59,19.1,125.29,28.69,189.1,18.17,121.01,37.28,248.61,55.7,368.14,2.83,18.99,7.54,52.79,16.19,9.46,16.92-96.67,35.92-198.95,56.03-295.77,11.7-51.25,22.88-105.88,51.53-150.34,36.87-56.89,98.89-79.89,163.49-72.3,111.44,11.93,166.64,117.48,147.89,225.36-8.97,54.79-43.1,104.12-94.6,123.4-68.66,24.85-138.32.05-172.1-67.61-18.99-39.2-30.79-86.67-21.74-129.99,4.43-23.24,18.71-51.21,24.26-4.01,2.74,25.67,5.48,51.8,12.44,76.48,12.16,48.63,43.12,91.41,94.44,96.95,55.88,6.78,105.37-30.6,120.25-85.81,17.1-62.16,1.5-139.55-53.37-176.35-46.43-30.61-111.45-32.04-157.89-.63-47.92,33.63-63.4,96.07-76.52,150.8-19.71,87.73-34.8,174.57-51.29,262.79-5.01,27.79-10.48,58.2-15.59,86.56-3.52,19.55-6.35,35.36-9.02,49.48-3.52,17.32-8.8,48.16-30.53,46.73-.2-.01-.4-.05-.58-.11-19.45-6.48-21.11-46.38-25.49-68.65-4.69-30.28-9.03-58.15-13.42-86.66-16.69-110.45-35.53-234.93-50.74-337.24-4.63-31.4-9.86-66.69-14.48-98.06-1.97-13.16-5.47-39.59-7.62-42.58-2.26-4.12-4.12,3.23-5.68,8.26-.01.04-.03.09-.04.14-8.89,38.98-12.78,72.13-20.55,113.37-7.57,43.24-15.53,88.45-22.98,131.1-3.1,17.78-6.29,36.23-9.42,54.28-4.25,21.9-6.47,44.67-13.29,65.5-20.32,52.74-43.05,3.7-53.33-25.3-3.47-9.44-6.91-19.02-10.34-28.51-7.56-18.5-14.09-48.69-27.69-48.92-.17,0-.35.01-.51.05-7.75,1.63-14.05,14.49-19.44,22.09-4.53,6.75-9.74,13.8-15.22,19.66-21.28,22.99-42.01,23.38-76.02,23.2h-109.58c-28.42-.46-47.63,1.06-71.32-.96-28.71-3.77-28.03-27.2-.79-30.75.06,0,.12-.01.18-.01,55.96-3.27,134.44-1.09,191-2.86,10-.3,20.32-1.5,29.03-5.15,10.57-4.13,19.06-13.93,25.47-23.91,12-17.62,18.74-40.41,31.68-57.04,24.13-32.29,40.87,6,49.58,29.73,7.44,19.62,15.59,46.07,24.09,63.45,8.93,18.54,11.26,5.1,13.81-6.67,17.54-97.68,32.95-192.66,50.69-289.19,5.3-29.58,12.07-67.96,17.08-94.69,2.9-13.81,6.63-31.76,20.66-37.12l.16-.05h0Z"/>
  <path class="cls-1" d="M711.45,482.6h0c.18.18.32.4.41.63l15.01,38.7c.04.09.08.18.13.27l11.07,19.04c.17.29.25.6.25.93v247.23c0,.7-.41,1.35-1.06,1.69l-2.29,1.18c-.3.15-.63.24-.97.24h-21.38c-.57,0-1.11-.23-1.5-.63l-2.66-2.75c-.34-.35-.54-.82-.54-1.3v-303.93c0-1.75,2.28-2.59,3.53-1.3h-.02Z"/>
</svg>
